<svg width="30" height="30" viewBox="0 0 30 30" fill="none" xmlns="http://www.w3.org/2000/svg">
<g clip-path="url(#clip0_4_1303)">
<path d="M23.58 19.9219H10.455C10.3446 19.9218 10.2377 19.8828 10.1532 19.8116C10.0687 19.7404 10.0121 19.6417 9.99331 19.5328L7.35846 4.37297C7.33966 4.26421 7.283 4.16559 7.19851 4.09456C7.11401 4.02354 7.00713 3.98467 6.89674 3.98485H3.46643C3.34211 3.98485 3.22288 3.93546 3.13497 3.84756C3.04707 3.75965 2.99768 3.64042 2.99768 3.5161C2.99768 3.39178 3.04707 3.27255 3.13497 3.18464C3.22288 3.09674 3.34211 3.04735 3.46643 3.04735H6.89674C7.228 3.04695 7.54872 3.16371 7.80221 3.37696C8.05569 3.59021 8.2256 3.88623 8.2819 4.21266L10.8497 18.9844H23.58C23.7043 18.9844 23.8236 19.0338 23.9115 19.1217C23.9994 19.2096 24.0488 19.3288 24.0488 19.4531C24.0488 19.5775 23.9994 19.6967 23.9115 19.7846C23.8236 19.8725 23.7043 19.9219 23.58 19.9219Z" fill="#7C8C8E"/>
<path d="M24.0487 24.8438C23.9244 24.8438 23.8052 24.7944 23.7172 24.7065C23.6293 24.6185 23.58 24.4993 23.58 24.375C23.58 22.178 20.7412 20.3906 17.2518 20.3906C13.7625 20.3906 10.9237 22.178 10.9237 24.375C10.9237 24.4993 10.8743 24.6185 10.7864 24.7065C10.6985 24.7944 10.5793 24.8438 10.455 24.8438C10.3306 24.8438 10.2114 24.7944 10.1235 24.7065C10.0356 24.6185 9.98621 24.4993 9.98621 24.375C9.98621 21.6609 13.2454 19.4531 17.2518 19.4531C21.2582 19.4531 24.5175 21.6609 24.5175 24.375C24.5175 24.4993 24.4681 24.6185 24.3802 24.7065C24.2923 24.7944 24.173 24.8438 24.0487 24.8438Z" fill="#7C8C8E"/>
<path opacity="0.1" d="M23.58 19.9219H10.455C10.3446 19.9218 10.2377 19.8828 10.1532 19.8116C10.0687 19.7404 10.0121 19.6417 9.99331 19.5328L7.35846 4.37297C7.33966 4.26421 7.283 4.16559 7.19851 4.09456C7.11401 4.02354 7.00713 3.98467 6.89674 3.98485H3.46643C3.34211 3.98485 3.22288 3.93546 3.13497 3.84756C3.04707 3.75965 2.99768 3.64042 2.99768 3.5161C2.99768 3.39178 3.04707 3.27255 3.13497 3.18464C3.22288 3.09674 3.34211 3.04735 3.46643 3.04735H6.89674C7.228 3.04695 7.54872 3.16371 7.80221 3.37696C8.05569 3.59021 8.2256 3.88623 8.2819 4.21266L10.8497 18.9844H23.58C23.7043 18.9844 23.8236 19.0338 23.9115 19.1217C23.9994 19.2096 24.0488 19.3288 24.0488 19.4531C24.0488 19.5775 23.9994 19.6967 23.9115 19.7846C23.8236 19.8725 23.7043 19.9219 23.58 19.9219Z" fill="black"/>
<path opacity="0.1" d="M24.0487 24.8438C23.9244 24.8438 23.8052 24.7944 23.7172 24.7065C23.6293 24.6185 23.58 24.4993 23.58 24.375C23.58 22.178 20.7412 20.3906 17.2518 20.3906C13.7625 20.3906 10.9237 22.178 10.9237 24.375C10.9237 24.4993 10.8743 24.6185 10.7864 24.7065C10.6985 24.7944 10.5793 24.8438 10.455 24.8438C10.3306 24.8438 10.2114 24.7944 10.1235 24.7065C10.0356 24.6185 9.98621 24.4993 9.98621 24.375C9.98621 21.6609 13.2454 19.4531 17.2518 19.4531C21.2582 19.4531 24.5175 21.6609 24.5175 24.375C24.5175 24.4993 24.4681 24.6185 24.3802 24.7065C24.2923 24.7944 24.173 24.8438 24.0487 24.8438Z" fill="black"/>
<path d="M28.4062 9.73125L25.5749 19.1672C25.5102 19.3854 25.3766 19.5768 25.1941 19.7128C25.0116 19.8488 24.79 19.9222 24.5624 19.9219H10.0406C9.78132 19.9206 9.53148 19.8246 9.33809 19.6519C9.1447 19.4792 9.0211 19.2418 8.99057 18.9844L6.84838 7.57969C6.81833 7.41794 6.82638 7.25141 6.8719 7.09331C6.91741 6.93521 6.99914 6.7899 7.1106 6.66889C7.22206 6.54787 7.36018 6.4545 7.51401 6.39616C7.66784 6.33783 7.83315 6.31614 7.99682 6.33282L27.0328 8.325L27.5062 8.37657C27.6606 8.39309 27.8094 8.44342 27.9422 8.52398C28.0749 8.60453 28.1882 8.71334 28.2742 8.84267C28.3601 8.97199 28.4164 9.11866 28.4393 9.27224C28.4621 9.42582 28.4508 9.58254 28.4062 9.73125Z" fill="#FC8D98"/>
<path d="M6.70312 2.8125V3.98438H2.71875C2.40795 3.98438 2.10988 3.86091 1.89011 3.64114C1.67034 3.42137 1.54688 3.1233 1.54688 2.8125C1.54688 2.5017 1.67034 2.20363 1.89011 1.98386C2.10988 1.76409 2.40795 1.64063 2.71875 1.64062H5.53125C5.84205 1.64063 6.14012 1.76409 6.35989 1.98386C6.57966 2.20363 6.70312 2.5017 6.70312 2.8125Z" fill="#FEDB8E"/>
<path d="M12.7969 26.0156C12.7008 29.1202 8.20172 29.1061 8.10938 26.0156C8.20125 22.9284 12.6956 22.9073 12.7969 26.0156ZM26.3906 26.0156C26.2945 29.1202 21.7955 29.1061 21.7031 26.0156C21.795 22.9284 26.2894 22.9073 26.3906 26.0156Z" fill="#7C8C8E"/>
<path opacity="0.1" d="M14.2031 9.60938V14.7656C14.2031 15.0143 14.1044 15.2527 13.9285 15.4285C13.7527 15.6044 13.5143 15.7031 13.2656 15.7031C13.017 15.7031 12.7785 15.6044 12.6027 15.4285C12.4269 15.2527 12.3281 15.0143 12.3281 14.7656V9.60938C12.3281 9.36073 12.4269 9.12228 12.6027 8.94646C12.7785 8.77065 13.017 8.67188 13.2656 8.67188C13.5143 8.67188 13.7527 8.77065 13.9285 8.94646C14.1044 9.12228 14.2031 9.36073 14.2031 9.60938ZM18.4219 10.5469V14.7656C18.4219 15.0143 18.3231 15.2527 18.1473 15.4285C17.9715 15.6044 17.733 15.7031 17.4844 15.7031C17.2357 15.7031 16.9973 15.6044 16.8215 15.4285C16.6456 15.2527 16.5469 15.0143 16.5469 14.7656V10.5469C16.5469 10.2982 16.6456 10.0598 16.8215 9.88396C16.9973 9.70815 17.2357 9.60938 17.4844 9.60938C17.733 9.60938 17.9715 9.70815 18.1473 9.88396C18.3231 10.0598 18.4219 10.2982 18.4219 10.5469ZM22.6406 11.4844V14.7656C22.6406 15.0143 22.5419 15.2527 22.366 15.4285C22.1902 15.6044 21.9518 15.7031 21.7031 15.7031C21.4545 15.7031 21.216 15.6044 21.0402 15.4285C20.8644 15.2527 20.7656 15.0143 20.7656 14.7656V11.4844C20.7656 11.2357 20.8644 10.9973 21.0402 10.8215C21.216 10.6456 21.4545 10.5469 21.7031 10.5469C21.9518 10.5469 22.1902 10.6456 22.366 10.8215C22.5419 10.9973 22.6406 11.2357 22.6406 11.4844Z" fill="black"/>
<path d="M14.2031 10.5469V15.7031C14.2031 15.9518 14.1044 16.1902 13.9285 16.366C13.7527 16.5419 13.5143 16.6406 13.2656 16.6406C13.017 16.6406 12.7785 16.5419 12.6027 16.366C12.4269 16.1902 12.3281 15.9518 12.3281 15.7031V10.5469C12.3281 10.2982 12.4269 10.0598 12.6027 9.88396C12.7785 9.70815 13.017 9.60938 13.2656 9.60938C13.5143 9.60938 13.7527 9.70815 13.9285 9.88396C14.1044 10.0598 14.2031 10.2982 14.2031 10.5469ZM18.4219 11.4844V15.7031C18.4219 15.9518 18.3231 16.1902 18.1473 16.366C17.9715 16.5419 17.733 16.6406 17.4844 16.6406C17.2357 16.6406 16.9973 16.5419 16.8215 16.366C16.6456 16.1902 16.5469 15.9518 16.5469 15.7031V11.4844C16.5469 11.2357 16.6456 10.9973 16.8215 10.8215C16.9973 10.6456 17.2357 10.5469 17.4844 10.5469C17.733 10.5469 17.9715 10.6456 18.1473 10.8215C18.3231 10.9973 18.4219 11.2357 18.4219 11.4844ZM22.6406 12.4219V15.7031C22.6406 15.9518 22.5419 16.1902 22.366 16.366C22.1902 16.5419 21.9518 16.6406 21.7031 16.6406C21.4545 16.6406 21.216 16.5419 21.0402 16.366C20.8644 16.1902 20.7656 15.9518 20.7656 15.7031V12.4219C20.7656 12.1732 20.8644 11.9348 21.0402 11.759C21.216 11.5831 21.4545 11.4844 21.7031 11.4844C21.9518 11.4844 22.1902 11.5831 22.366 11.759C22.5419 11.9348 22.6406 12.1732 22.6406 12.4219Z" fill="#F2F2F2"/>
</g>
<defs>
<clipPath id="clip0_4_1303">
<rect width="30" height="30" fill="white"/>
</clipPath>
</defs>
</svg>
