<svg width="50" height="50" viewBox="0 0 50 50" fill="none" xmlns="http://www.w3.org/2000/svg">
<g clip-path="url(#clip0_3_2)">
<path d="M39.2383 45.1989C39.2383 47.9259 32.9492 50.1233 25.1953 50.1233C17.4414 50.1233 11.1523 47.9063 11.1523 45.1989C11.1523 42.4718 17.4414 40.2745 25.1953 40.2745C32.9492 40.2745 39.2383 42.4718 39.2383 45.1989Z" fill="#9EDCF2"/>
<mask id="mask0_3_2" style="mask-type:luminance" maskUnits="userSpaceOnUse" x="17" y="43" width="16" height="14">
<path d="M19.1601 54.0275C19.4726 55.4989 20.2344 56.3621 20.9961 56.8722H29.0234C30 56.2052 30.9961 54.9496 30.9961 52.5953V46.5134C30.9961 46.5134 31.1133 45.0027 32.5 44.5122C32.5 44.5122 33.3008 43.9433 32.4414 43.6294C32.4414 43.6294 28.6328 43.3155 28.6328 46.4545V51.0846C28.6328 51.0846 28.789 52.7915 27.8906 53.4978V47.769C27.8906 47.769 27.9492 45.9444 28.8867 45.2577C28.8867 45.2577 29.5117 44.1395 28.1445 44.4337C28.1445 44.4337 25.5273 44.8065 25.4101 47.8867L25.3515 53.7724H24.7265L24.668 47.8867C24.5508 44.8261 21.9336 44.4337 21.9336 44.4337C20.5664 44.1198 21.1914 45.2577 21.1914 45.2577C22.1289 45.9444 22.1875 47.769 22.1875 47.769V53.5566C21.289 52.9092 21.4453 51.0846 21.4453 51.0846V46.4545C21.4453 43.3155 17.6367 43.6294 17.6367 43.6294C16.7578 43.9433 17.5781 44.5122 17.5781 44.5122C18.9453 45.0223 19.082 46.5134 19.082 46.5134V50.7707L19.1601 54.0275V54.0275Z" fill="white"/>
</mask>
<g mask="url(#mask0_3_2)">
<path d="M39.2383 45.1989C39.2383 47.9259 32.9492 50.1233 25.1953 50.1233C17.4414 50.1233 11.1523 47.9063 11.1523 45.1989C11.1523 42.4718 17.4414 40.2745 25.1953 40.2745C32.9492 40.2745 39.2383 42.4718 39.2383 45.1989Z" fill="#7DBCE7"/>
</g>
<path d="M9.16018 30.7004L8.75002 32.113C8.75002 32.113 8.65237 32.6231 9.12112 32.7212C9.62893 32.7015 9.58987 32.2307 9.55081 32.0934L9.16018 30.7004Z" fill="#9EDCF2"/>
<path d="M49.9609 24.7558L50 24.5793C45.8789 23.7553 41.6602 23.7356 39.1016 23.8533C39.5117 22.3427 39.6484 20.577 39.6484 18.6347C39.6484 15.8292 38.5938 13.5926 36.9141 11.9053C37.207 10.944 37.5977 8.80553 36.5234 6.07848C36.5234 6.07848 34.6094 5.47029 30.2539 8.39353C28.5547 7.96191 26.7383 7.7461 24.9219 7.7461C22.9297 7.7461 20.918 8.00115 19.0234 8.51124C14.5313 5.43105 12.5586 6.05886 12.5586 6.05886C11.2695 9.29601 12.0703 11.7092 12.3047 12.2977C10.7812 13.9457 9.86328 16.045 9.86328 18.6151C9.86328 20.5573 10.0781 22.3034 10.625 23.8141C8.04688 23.716 3.98437 23.7553 0 24.5596L0.0390625 24.7362C4.02344 23.9318 8.125 23.9122 10.6836 24.0103C10.8008 24.3242 10.9375 24.6381 11.0742 24.9324C8.53516 25.0109 4.21875 25.3444 0.078125 26.5215L0.136719 26.6981C4.31641 25.521 8.67187 25.2071 11.1914 25.1286C12.7148 27.9537 15.6836 29.7979 20.9961 30.3669C20.2344 30.877 19.4727 31.7402 19.1602 33.2116C18.125 33.7021 14.8828 34.9185 12.9297 31.544C12.9297 31.544 11.8359 29.5429 9.74609 29.3859C9.74609 29.3859 7.71484 29.3467 9.60938 30.6612C9.60938 30.6612 10.957 31.3086 11.8945 33.7217C11.8945 33.7217 13.125 37.8417 19.0039 36.5076V40.7257C19.0039 40.7257 18.8867 42.2364 17.5 42.7269C17.5 42.7269 16.6797 43.2958 17.5586 43.6097C17.5586 43.6097 21.3672 43.9237 21.3672 40.7846V36.1545C21.3672 36.1545 21.2109 34.3103 22.1094 33.6825V41.2947C22.1094 41.2947 22.0508 43.1193 21.1133 43.8059C21.1133 43.8059 20.4883 44.9242 21.8555 44.6299C21.8555 44.6299 24.4727 44.2572 24.5898 41.177L24.6484 33.4667H25.2734L25.332 41.177C25.4492 44.2376 28.0664 44.6299 28.0664 44.6299C29.4336 44.9438 28.8086 43.8059 28.8086 43.8059C27.8711 43.1193 27.8125 41.2947 27.8125 41.2947V33.7414C28.7109 34.4476 28.5547 36.1545 28.5547 36.1545V40.7846C28.5547 43.9237 32.3633 43.6097 32.3633 43.6097C33.2422 43.2958 32.4219 42.7269 32.4219 42.7269C31.0547 42.2168 30.918 40.7257 30.918 40.7257V34.6438C30.918 32.2699 29.9219 31.0143 28.9453 30.3669C34.6094 29.7979 37.3242 27.9734 38.5742 25.109C41.0547 25.1678 45.5273 25.4817 49.7852 26.6981L49.8437 26.5215C45.6055 25.3248 41.1719 25.0109 38.6523 24.9324C38.7695 24.6381 38.8672 24.3438 38.9648 24.0299C41.582 23.9318 45.8203 23.9318 49.9609 24.7558Z" fill="#010101"/>
<path d="M34.1016 18.4973C35.3125 19.6156 36.0352 20.9497 36.0352 22.3819C36.0352 29.1309 31.0352 29.3074 24.8633 29.3074C18.6914 29.3074 13.6914 28.3657 13.6914 22.3819C13.6914 20.9497 14.3945 19.6156 15.6055 18.517C17.6172 16.6728 21.0156 17.6537 24.8633 17.6537C28.7109 17.6537 32.0898 16.6532 34.1016 18.4973Z" fill="#F5CCB3"/>
<path d="M21.1523 22.7351C21.1523 24.5989 20.1172 26.0899 18.8281 26.0899C17.5391 26.0899 16.5039 24.5793 16.5039 22.7351C16.5039 20.8713 17.5391 19.3802 18.8281 19.3802C20.1172 19.3606 21.1523 20.8713 21.1523 22.7351Z" fill="white"/>
<path d="M20.4102 22.7743C20.4102 24.0103 19.707 25.0109 18.8672 25.0109C18.0078 25.0109 17.3242 24.0103 17.3242 22.7743C17.3242 21.5383 18.0273 20.5377 18.8672 20.5377C19.707 20.5377 20.4102 21.5383 20.4102 22.7743Z" fill="#AF5C51"/>
<path d="M33.6328 22.7351C33.6328 24.5989 32.5977 26.0899 31.3086 26.0899C30.0195 26.0899 28.9844 24.5793 28.9844 22.7351C28.9844 20.8713 30.0195 19.3802 31.3086 19.3802C32.5781 19.3606 33.6328 20.8713 33.6328 22.7351Z" fill="white"/>
<path d="M32.8711 22.7743C32.8711 24.0103 32.168 25.0109 31.3282 25.0109C30.4688 25.0109 29.7852 24.0103 29.7852 22.7743C29.7852 21.5383 30.4883 20.5377 31.3282 20.5377C32.1875 20.5377 32.8711 21.5383 32.8711 22.7743ZM25.4883 25.7172C25.4883 26.0311 25.2344 26.3057 24.9024 26.3057C24.5899 26.3057 24.3164 26.0507 24.3164 25.7172C24.3164 25.3836 24.5703 25.1286 24.9024 25.1286C25.2149 25.1286 25.4883 25.3836 25.4883 25.7172ZM23.5547 27.1886C23.5157 27.0905 23.5742 26.9924 23.6719 26.9532C23.7696 26.9139 23.8672 26.9728 23.9063 27.0709C24.0625 27.5025 24.4532 27.7772 24.9024 27.7772C25.3516 27.7772 25.7422 27.4829 25.8985 27.0709C25.9375 26.9728 26.0352 26.9139 26.1328 26.9532C26.2305 26.9924 26.2891 27.0905 26.25 27.1886C26.0547 27.7575 25.5078 28.1499 24.9024 28.1499C24.2969 28.1499 23.75 27.7575 23.5547 27.1886Z" fill="#AF5C51"/>
<path d="M10.6445 29.8568C10.6445 30.0137 10.4688 30.1314 10.2344 30.1314C10.0195 30.1314 9.82422 30.0137 9.82422 29.8568C9.82422 29.6998 10 29.5821 10.2344 29.5821C10.4688 29.5821 10.6445 29.6998 10.6445 29.8568ZM11.7773 30.4846C11.7773 30.6415 11.6016 30.7593 11.3672 30.7593C11.1523 30.7593 10.957 30.6415 10.957 30.4846C10.957 30.3276 11.1328 30.2099 11.3672 30.2099C11.6016 30.2099 11.7773 30.3276 11.7773 30.4846ZM12.4609 31.3086C12.4609 31.4655 12.2852 31.5833 12.0508 31.5833C11.8359 31.5833 11.6406 31.4655 11.6406 31.3086C11.6406 31.1516 11.8164 31.0339 12.0508 31.0339C12.2852 31.0143 12.4609 31.1516 12.4609 31.3086ZM13.0859 32.2503C13.0859 32.4073 12.9102 32.525 12.6758 32.525C12.4609 32.525 12.2656 32.4073 12.2656 32.2503C12.2656 32.0934 12.4414 31.9756 12.6758 31.9756C12.9102 31.956 13.0859 32.0934 13.0859 32.2503ZM13.7695 33.1135C13.7695 33.2705 13.5938 33.3882 13.3594 33.3882C13.1445 33.3882 12.9492 33.2705 12.9492 33.1135C12.9492 32.9566 13.125 32.8389 13.3594 32.8389C13.5938 32.8389 13.7695 32.9566 13.7695 33.1135ZM14.707 33.8787C14.707 34.0356 14.5312 34.1534 14.2969 34.1534C14.082 34.1534 13.8867 34.0356 13.8867 33.8787C13.8867 33.7217 14.0625 33.604 14.2969 33.604C14.5312 33.5844 14.707 33.7217 14.707 33.8787ZM16.0156 34.3692C16.0156 34.5261 15.8398 34.6438 15.6055 34.6438C15.3906 34.6438 15.1953 34.5261 15.1953 34.3692C15.1953 34.2122 15.3711 34.0945 15.6055 34.0945C15.8398 34.0945 16.0156 34.2122 16.0156 34.3692ZM17.3242 34.3692C17.3242 34.5261 17.1484 34.6438 16.9141 34.6438C16.6992 34.6438 16.5039 34.5261 16.5039 34.3692C16.5039 34.2122 16.6797 34.0945 16.9141 34.0945C17.1484 34.0945 17.3242 34.2122 17.3242 34.3692ZM18.6523 34.1534C18.6523 34.3103 18.4766 34.428 18.2422 34.428C18.0273 34.428 17.832 34.3103 17.832 34.1534C17.832 33.9964 18.0078 33.8787 18.2422 33.8787C18.457 33.8787 18.6523 33.9964 18.6523 34.1534Z" fill="#C4E5D9"/>
</g>
<defs>
<clipPath id="clip0_3_2">
<rect width="50" height="50" fill="white"/>
</clipPath>
</defs>
</svg>
